PathFileType	4	(X/Y/Z)	/Users/itak/Documents/Research/Walk-IL/dataset/trc/00232_00009.trc
DataRate	CameraRate	NumFrames	NumMarkers	Units	OrigDataRate	OrigDataStartFrame	OrigNumFrames
100.000000	100.000000	4	53	mm	100.000000	319	852
Frame#	Time	RPSI			LPSI			L3			STRN			T10			C7			CLAV			RBAK			LBAK			LSHO			LUPA			LAEL			LAOL			LWTS			LWPS			LFRA			LIFD			LHPS			LHTS			RSHO			RUPA			RAEL			RAOL			RWTS			RWPS			RFRA			RIFD			RHTS			RHPS			RBHD			LFHD			RFHD			LBHD			LHIP			RHIP			RASI			LASI			LKNE			LTHI			LANK			LTIP			LTOE			LMT1			LMT5			LHEE			RKNE			RTHI			RANK			RTIP			RTOE			RMT1			RMT5			RHEE			
		X1	Y1	Z1	X2	Y2	Z2	X3	Y3	Z3	X4	Y4	Z4	X5	Y5	Z5	X6	Y6	Z6	X7	Y7	Z7	X8	Y8	Z8	X9	Y9	Z9	X10	Y10	Z10	X11	Y11	Z11	X12	Y12	Z12	X13	Y13	Z13	X14	Y14	Z14	X15	Y15	Z15	X16	Y16	Z16	X17	Y17	Z17	X18	Y18	Z18	X19	Y19	Z19	X20	Y20	Z20	X21	Y21	Z21	X22	Y22	Z22	X23	Y23	Z23	X24	Y24	Z24	X25	Y25	Z25	X26	Y26	Z26	X27	Y27	Z27	X28	Y28	Z28	X29	Y29	Z29	X30	Y30	Z30	X31	Y31	Z31	X32	Y32	Z32	X33	Y33	Z33	X34	Y34	Z34	X35	Y35	Z35	X36	Y36	Z36	X37	Y37	Z37	X38	Y38	Z38	X39	Y39	Z39	X40	Y40	Z40	X41	Y41	Z41	X42	Y42	Z42	X43	Y43	Z43	X44	Y44	Z44	X45	Y45	Z45	X46	Y46	Z46	X47	Y47	Z47	X48	Y48	Z48	X49	Y49	Z49	X50	Y50	Z50	X51	Y51	Z51	X52	Y52	Z52	X53	Y53	Z53	

320	3.19	795.563232421875	1008.792297363281	186.2611083984375	676.210693359375	1015.156799316406	206.2934112548828	716.3787841796875	1100.50537109375	202.1189422607422	667.7086181640625	1284.885498046875	-43.84953689575195	720.079833984375	1227.636108398438	208.5274200439453	702.2090454101562	1488.124877929688	143.2689361572266	674.1478881835938	1403.618774414062	-20.16007232666016	791.2296752929688	1351.84423828125	205.6095581054688	597.0787353515625	1451.231567382812	184.4112243652344	526.68505859375	1450.521728515625	104.7914962768555	449.8065490722656	1334.814208984375	144.4121246337891	414.1755981445312	1127.017456054688	115.38623046875	460.3614196777344	1102.531494140625	186.9539794921875	494.8165283203125	926.2416381835938	-21.02083396911621	413.6628112792969	900.6322021484375	-10.46678829193115	407.826171875	1026.655029296875	69.17755889892578	498.8106079101562	739.8056640625	-75.55804443359375	425.3677368164062	820.1715698242188	-49.42473983764648	483.2236328125	837.2284545898438	-82.03195190429688	858.275634765625	1449.625244140625	53.60836410522461	928.7808227539062	1387.093994140625	60.48807144165039	986.966796875	1111.01220703125	82.63380432128906	906.7611694335938	1101.013671875	133.1459808349609	935.1787109375	885.5993041992188	-30.97587776184082	1009.405822753906	879.65283203125	8.367111206054688	999.0533447265625	1042.13720703125	57.88111114501953	939.2109985351562	692.810546875	-30.21819496154785	951.3071899414062	763.3541870117188	-64.97099304199219	1010.738708496094	770.207763671875	-23.76865196228027	745.3904418945312	1645.116088867188	85.10423278808594	606.865478515625	1672.755859375	-93.37409210205078	704.9592895507812	1672.203491210938	-115.1011199951172	605.6290283203125	1648.309326171875	69.93878936767578	518.0750732421875	953.7119750976562	134.1379547119141	878.629150390625	976.4891357421875	66.01472473144531	821.9183349609375	1018.312866210938	-17.2060718536377	544.1224365234375	997.54541015625	25.67464065551758	586.7978515625	474.4064331054688	134.2603759765625	548.4804077148438	616.4539184570312	122.3878173828125	619.3185424804688	42.81059646606445	354.0469360351562	595.7914428710938	265.6755981445312	242.7942504882812	710.5747680664062	35.2663459777832	153.2519073486328	739.4275512695312	33.27984619140625	227.9917144775391	622.487548828125	32.79489898681641	226.4901123046875	659.7103271484375	61.72962951660156	423.2708435058594	812.3994140625	527.9933471679688	-132.1335601806641	865.7451171875	775.4118041992188	-50.85079956054688	841.1826782226562	24.64614105224609	-156.4757995605469	796.430419921875	408.1874084472656	-165.5942230224609	702.6041870117188	64.74253845214844	-312.8526916503906	690.081298828125	53.09181594848633	-244.6216888427734	805.62109375	32.45090866088867	-262.5835266113281	819.3363037109375	22.71042633056641	-73.11463165283203	
321	3.2	797.6415405273438	1008.771789550781	177.7600402832031	678.3331298828125	1014.880554199219	198.8517150878906	718.717041015625	1100.131103515625	194.4539794921875	667.849853515625	1285.081909179688	-50.62152481079102	723.0105590820312	1227.388549804688	201.262939453125	704.7501220703125	1487.982788085938	136.4359741210938	674.6381225585938	1403.696655273438	-26.7454662322998	794.3834838867188	1351.460571289062	197.5338439941406	600.2093505859375	1451.028198242188	178.8138122558594	528.7850952148438	1450.514770507812	100.3642349243164	452.6974792480469	1334.719116210938	141.7449951171875	416.8428039550781	1126.69873046875	114.9046020507812	464.8902893066406	1102.92431640625	185.7628479003906	493.09130859375	923.1870727539062	-19.7589111328125	412.0086364746094	898.5049438476562	-7.121919631958008	408.88037109375	1025.708984375	70.5953369140625	494.1687622070312	735.7223510742188	-71.21498870849609	422.1180419921875	817.3479614257812	-44.89424514770508	479.4300842285156	833.1820678710938	-78.9853515625	859.7701416015625	1449.368408203125	44.9388542175293	930.3446044921875	1386.734497070312	50.83599853515625	988.1964111328125	1110.472290039062	71.60269165039062	908.4884643554688	1100.532470703125	123.0388565063477	935.1317749023438	884.8860473632812	-41.05398178100586	1009.921875	879.1608276367188	-2.725629091262817	999.94482421875	1041.648071289062	46.73740768432617	939.447509765625	691.989501953125	-39.79909133911133	950.9067993164062	762.4854125976562	-74.85366058349609	1010.953247070312	769.613525390625	-34.56962585449219	747.3587646484375	1645.085083007812	78.12059020996094	606.5346069335938	1673.163940429688	-98.49885559082031	704.3313598632812	1672.721313476562	-121.4811859130859	607.382080078125	1648.254760742188	64.76370239257812	519.7196044921875	953.3157958984375	128.1525268554688	879.6436157226562	976.801025390625	56.6743049621582	822.0249633789062	1018.287048339844	-25.89569473266602	544.775390625	997.4284057617188	19.50817108154297	587.5477294921875	473.9812316894531	127.6642074584961	549.5796508789062	616.0634155273438	116.0560073852539	620.0787353515625	45.19705963134766	353.7691040039062	596.7003784179688	266.53662109375	239.0030975341797	710.437255859375	35.13310623168945	152.928466796875	739.5545043945312	33.83759307861328	227.531494140625	622.8424682617188	33.01564788818359	226.4252319335938	660.7416381835938	65.40183258056641	422.54052734375	810.1964721679688	528.0989990234375	-141.0267333984375	864.4683227539062	775.886474609375	-60.64059066772461	841.210205078125	24.59803199768066	-157.2671203613281	794.1434936523438	407.6651306152344	-172.7848205566406	701.3804321289062	60.27953720092773	-314.2372131347656	689.6174926757812	50.26245498657227	-245.6009979248047	805.6340942382812	30.55015754699707	-263.5763549804688	819.6023559570312	23.59793472290039	-73.81919097900391	
322	3.21	799.542236328125	1008.915893554688	169.2008819580078	680.3477783203125	1014.748107910156	191.3885498046875	720.9274291992188	1099.959594726562	186.7979736328125	667.9462890625	1285.4833984375	-57.41033935546875	725.792236328125	1227.352172851562	194.0158233642578	707.2609252929688	1488.050659179688	129.5444793701172	675.1038208007812	1403.9638671875	-33.34775924682617	797.4514770507812	1351.277465820312	189.4064025878906	603.257568359375	1451.066650390625	173.0960998535156	530.8486938476562	1450.765991210938	95.80619049072266	455.6319885253906	1334.895141601562	139.0086517333984	419.6508483886719	1126.640625	114.4751129150391	469.6896362304688	1103.598510742188	184.4899291992188	491.3148193359375	920.400390625	-18.33146476745605	410.4305114746094	896.654541015625	-3.38850736618042	410.0929565429688	1025.036376953125	72.24227142333984	489.5155639648438	731.954345703125	-66.49372863769531	418.8982543945312	814.829833984375	-39.89595031738281	475.5204467773438	829.4326782226562	-75.62646484375	861.199951171875	1449.322875976562	36.25017929077148	931.82666015625	1386.591918945312	41.18487930297852	989.31298828125	1110.150634765625	60.57022476196289	910.0830688476562	1100.246704101562	112.8786926269531	935.0582275390625	884.4603881835938	-51.26887130737305	1010.371459960938	878.9339599609375	-13.91914463043213	1000.737976074219	1041.385375976562	35.57250595092773	939.6553344726562	691.428466796875	-49.5805549621582	950.4954223632812	761.8909301757812	-84.89376068115234	1011.1240234375	769.2930297851562	-45.51133728027344	749.3223266601562	1645.242431640625	71.05408477783203	606.225830078125	1673.760009765625	-103.6768035888672	703.705322265625	1673.420288085938	-127.9147338867188	609.1564331054688	1648.40185546875	59.5006217956543	521.2238159179688	953.0962524414062	122.1347503662109	880.5805053710938	977.3453979492188	47.33800888061523	822.0606079101562	1018.533752441406	-34.62915802001953	545.375	997.4988403320312	13.3294620513916	588.2034912109375	473.6296997070312	120.5740356445312	550.6340942382812	615.7805786132812	109.3971405029297	620.9522094726562	48.00704956054688	353.412109375	597.6351318359375	267.6194763183594	234.9020385742188	710.2571411132812	35.01204681396484	152.5925903320312	739.7125854492188	34.5189208984375	226.9815673828125	623.2500610351562	33.27492904663086	226.3345489501953	661.9562377929688	69.66819000244141	421.5861206054688	808.4362182617188	528.0732421875	-149.3254547119141	863.4630126953125	776.4707641601562	-70.23101806640625	841.289794921875	24.67042350769043	-157.9258270263672	792.2754516601562	407.1178894042969	-179.4094543457031	700.6074829101562	56.44286727905273	-315.5585327148438	689.4822387695312	47.95917892456055	-246.6157836914062	806.02587890625	29.11064529418945	-264.4438171386719	819.792724609375	24.35605049133301	-74.43365478515625	
323	3.22	801.3260498046875	1009.23193359375	160.577392578125	682.31640625	1014.773193359375	183.9205017089844	723.0562744140625	1099.991577148438	179.1359558105469	667.977294921875	1286.08740234375	-64.19974517822266	728.4505004882812	1227.5126953125	186.7666320800781	709.7360229492188	1488.324829101562	122.6103744506836	675.5328369140625	1404.428833007812	-39.95720291137695	800.4301147460938	1351.287475585938	181.236083984375	606.236083984375	1451.345458984375	167.2895660400391	532.8590698242188	1451.268798828125	91.12776184082031	458.5750427246094	1335.33203125	136.1891784667969	422.582275390625	1126.84716796875	114.1125030517578	474.7208862304688	1104.555908203125	183.1165924072266	489.4954223632812	917.906005859375	-16.76061058044434	408.9542541503906	895.0950927734375	0.7237875461578369	411.4603881835938	1024.647338867188	74.10343170166016	484.9049377441406	728.5393676757812	-61.41524887084961	415.7523193359375	812.6387329101562	-34.44077301025391	471.5162048339844	826.010009765625	-71.95713043212891	862.5585327148438	1449.481323242188	27.5482177734375	933.2160034179688	1386.66015625	31.53811836242676	990.32568359375	1110.046264648438	49.55989837646484	911.5713500976562	1100.148803710938	102.6952819824219	934.9463500976562	884.3247680664062	-61.61880111694336	1010.739013671875	878.962890625	-25.19935417175293	1001.44091796875	1041.344848632812	24.40787887573242	939.8257446289062	691.14013671875	-59.59439849853516	950.0628662109375	761.5912475585938	-95.11362457275391	1011.236022949219	769.249267578125	-56.59764099121094	751.2681274414062	1645.590942382812	63.91282272338867	605.9412231445312	1674.537475585938	-108.9121475219727	703.086669921875	1674.283447265625	-134.3977966308594	610.9443969726562	1648.75732421875	54.14789962768555	522.6198120117188	953.0692138671875	116.1315231323242	881.4371337890625	978.0894165039062	37.96777725219727	822.0401000976562	1019.075866699219	-43.46593475341797	545.8991088867188	997.7597045898438	7.172785758972168	588.7172241210938	473.3350830078125	112.933837890625	551.6264038085938	615.6049194335938	102.4069442749023	621.9527587890625	51.26863861083984	352.9247131347656	598.5624389648438	268.951416015625	230.4601745605469	710.0440673828125	34.91151428222656	152.2674407958984	739.915283203125	35.31626892089844	226.3359527587891	623.7158813476562	33.57321929931641	226.21728515625	663.3679809570312	74.57377624511719	420.3406677246094	807.1361083984375	527.8886108398438	-156.9403686523438	862.7615356445312	777.0518188476562	-79.56768035888672	841.3919067382812	24.82257461547852	-158.4579620361328	790.8526611328125	406.515625	-185.4082183837891	700.0885620117188	53.18313217163086	-316.7342834472656	689.4982299804688	46.10236740112305	-247.5638275146484	806.5838623046875	28.07128715515137	-265.1697998046875	819.916259765625	24.95197296142578	-74.93540191650391	
